<?xml version="1.0" encoding="utf-8"?>
<!-- Generator: Adobe Illustrator 23.0.1, SVG Export Plug-In . SVG Version: 6.00 Build 0)  -->
<svg version="1.1" id="Layer_1" xmlns="http://www.w3.org/2000/svg" xmlns:xlink="http://www.w3.org/1999/xlink" x="0px" y="0px"
	 viewBox="0 0 1000 1000" style="enable-background:new 0 0 1000 1000;" xml:space="preserve">
<style type="text/css">
	.st0{fill:#37639B;}
	.st1{fill:#BCBEC0;}
	.st2{fill:#020202;}
	.st3{fill-rule:evenodd;clip-rule:evenodd;fill:#231F20;stroke:#231F20;stroke-width:0.216;stroke-miterlimit:2.6131;}
	.st4{fill-rule:evenodd;clip-rule:evenodd;fill:#37639B;}
	.st5{fill-rule:evenodd;clip-rule:evenodd;fill:#BCBEC0;}
	.st6{fill:#FFFFFF;}
	.st7{fill-rule:evenodd;clip-rule:evenodd;fill:#FFFFFF;}
	.st8{fill:none;stroke:#000000;stroke-width:18;stroke-miterlimit:10;}
	.st9{fill-rule:evenodd;clip-rule:evenodd;fill:#020202;}
</style>
<path class="st5" d="M210.5,138.1h579c40,0,72.4,32.4,72.4,72.4v579c0,40-32.4,72.4-72.4,72.4h-579c-40,0-72.4-32.4-72.4-72.4v-579
	C138.1,170.5,170.5,138.1,210.5,138.1z"/>
<g>
	<path class="st6" d="M776.8,498.5l-5.2,1.4c-4.9-16.7-13.1-23.8-24.7-23.8c-8.2,0-13.9,5.4-13.9,13.9c0,8.2,6.7,12.5,24.9,19.9
		c16.8,6.2,23.7,13.7,23.7,26.9c0,20.1-15.8,32.7-41.7,32.7c-12.5,0-26.6-2.8-34.5-5.9l-1-27.9l4.9-1c7.4,19.1,16.8,26.3,29,26.3
		c10.6,0,16.2-7.4,16.2-14.9s-4.3-11.9-20.9-17.9c-15.8-5.2-26.6-11.9-26.6-28.7c0-16.5,14.5-30.5,39.2-30.5c11.7,0,22.2,2,29.2,5.2
		L776.8,498.5z M670.1,507.3c0.6-13.1-2-32.1-12.9-32.1c-11.1,0-17.2,17.7-17.4,32.9L670.1,507.3z M659.9,468.8
		c27.2,0,40.3,19.9,40.5,46h-61.1c-0.2,23.2,12.1,40.6,35,40.6c10,0,15.8-2.8,21.9-7.1l2.8,3.2c-6.7,9.2-20.6,17.9-39.2,17.9
		c-29.8,0-50.5-20.5-50.5-49.4C609.2,493.9,626.1,468.8,659.9,468.8 M571.7,517.2c-0.6-20.6-8.2-37-22.6-37c-3.5,0-6.1,0.6-10.2,2
		l1.2,79.5c1.5,0.6,4.9,1,7.4,1C561.5,562.6,571.7,542.7,571.7,517.2 M602,515.7c0,32.7-20.6,53.7-55.6,53.7
		c-12.5,0-25.4-2-36.6-4.6c1-13.1,1-94.4,0-109.7c-1-8-3.2-11.7-9.4-12.5l-4.1-0.4v-3.6l43.1-8c-0.2,6.7-0.6,24.5-0.6,45.4
		c7.6-3.8,14.5-5.9,23.9-5.9C585.3,470,602,489.1,602,515.7 M492.1,497.9c-13.3-8.8-27.6-5-30.5,0c-1.2,15.3-1,38.8,0.2,51
		c0.6,8,2.8,11.3,9,11.9l8.2,0.8v5.2h-60.9v-5.2l4.7-0.8c5.9-0.6,8-4,8.4-11.9c1.5-12.9,1.9-40,0-55c-0.4-8.5-2.4-11.7-8.4-12.5
		l-4.7-0.6v-3.6l43.5-8.4l-0.6,22.2c10.2-23,30.5-25.9,41.5-19.7L492.1,497.9z M349.2,519.3c0,24.3,6.6,44.2,19.8,44.2
		c14.3,0,18.4-19.5,18.4-44.2c0-24.7-6.3-44-19.8-44C353.3,475.2,349.2,494.1,349.2,519.3 M418.3,518.9c0,27.9-18.4,50.5-51.3,50.5
		c-32.3,0-48.6-21.5-48.6-49.8c0-27.7,18.4-50.8,51.3-50.8C402,468.8,418.3,490.5,418.3,518.9 M333.7,470.8l-6.7,2
		c-5.7-19.5-15.8-30.7-33.1-30.7h-22.6c-1.2,13-1.9,33.1-1.2,54.7l15.1-0.8c10.2,0,14.5-7.4,17-18.1h5.7v45.2h-5.8
		c-2.4-10.9-6.7-18.3-17-19l-15.1-0.2c0,16.1,0.2,29.9,1.2,38.3c1,11.9,4.3,17.4,13.1,18.5l8.2,0.8v5.2h-74.1v-5.2l6.2-0.8
		c8.5-1.2,12.1-6.6,13.1-18.5c1.6-19.5,2-61.1,0-84.2c-1-12.4-4.5-17.3-13.1-18.3l-6.2-1v-5.4h115.2L333.7,470.8z"/>
</g>
</svg>
