<?xml version="1.0" standalone="no"?>
<!DOCTYPE svg PUBLIC "-//W3C//DTD SVG 20010904//EN"
 "http://www.w3.org/TR/2001/REC-SVG-20010904/DTD/svg10.dtd">
<svg version="1.0" xmlns="http://www.w3.org/2000/svg"
 width="542.000000pt" height="542.000000pt" viewBox="0 0 542.000000 542.000000"
 preserveAspectRatio="xMidYMid meet">
<metadata>
Created by potrace 1.11, written by Peter Selinger 2001-2013
</metadata>
<g transform="translate(0.000000,542.000000) scale(0.100000,-0.100000)"
fill="#000000" stroke="none">
<path d="M2500 5413 c-533 -54 -990 -233 -1395 -548 -433 -336 -760 -813 -919
-1339 -36 -118 -73 -270 -81 -336 -3 -19 -7 -46 -10 -60 -33 -157 -39 -621
-11 -765 2 -11 7 -42 10 -70 8 -61 41 -222 58 -278 6 -23 12 -46 14 -52 29
-137 194 -527 263 -624 12 -16 21 -32 21 -35 0 -22 206 -308 284 -396 385
-428 852 -711 1381 -835 55 -13 136 -29 180 -35 44 -6 91 -13 105 -15 144 -23
515 -22 632 0 11 3 46 7 77 11 31 3 59 8 62 10 4 2 24 6 45 10 68 10 226 52
334 89 293 100 563 250 810 449 89 72 285 265 361 356 354 422 574 947 626
1495 10 100 10 436 1 530 -56 559 -266 1067 -617 1489 -83 100 -226 246 -310
316 -29 25 -59 50 -66 57 -33 32 -222 162 -316 218 -271 161 -598 281 -899
329 -52 8 -111 18 -130 21 -40 7 -456 13 -510 8z"/>
</g>
</svg>
